<?xml version="1.0" encoding="iso-8859-1"?>
<!-- Uploaded to: SVG Repo, www.svgrepo.com, Generator: SVG Repo Mixer Tools -->
<svg fill="#000000" height="800px" width="800px" version="1.1" id="Layer_1" xmlns="http://www.w3.org/2000/svg" xmlns:xlink="http://www.w3.org/1999/xlink" 
	 viewBox="0 0 512.001 512.001" xml:space="preserve">
<g>
	<g>
		<g>
			<path d="M500.04,337.3l-78.937-45.574c-15.933-9.199-35.929,2.313-35.929,20.743v27.074h-35.651
				c-60.107,0-77.252-48.206-95.214-83.543c17.185-33.807,34.341-83.542,95.214-83.542h35.651v27.074
				c0,18.399,19.97,29.958,35.929,20.743l78.937-45.573c15.935-9.199,15.96-32.273,0-41.488L421.103,87.64
				c-15.938-9.203-35.929,2.318-35.929,20.743v27.062h-35.651c-46.54,0-88.552,25.772-109.641,67.258l-6.333,12.459l-6.329-12.453
				c-21.089-41.487-63.101-67.259-109.641-67.259H18.507C8.286,135.45,0,143.736,0,153.956s8.286,18.507,18.507,18.507h99.072
				c60.107,0,77.261,48.227,95.21,83.536c-17.939,35.288-35.005,83.536-95.21,83.536c-10.221,0-18.507,8.286-18.507,18.507
				s8.286,18.507,18.507,18.507c46.54,0,88.552-25.772,109.641-67.259l6.329-12.453l6.333,12.459
				c21.089,41.487,63.101,67.258,109.641,67.258h35.651v27.062c0,18.404,19.972,29.957,35.929,20.743l78.937-45.574
				C515.973,369.588,516,346.515,500.04,337.3z"/>
			<path d="M53.496,339.538h-34.99C8.286,339.538,0,347.824,0,358.045s8.286,18.507,18.507,18.507h34.99
				c10.221,0,18.507-8.286,18.507-18.507S63.718,339.538,53.496,339.538z"/>
		</g>
	</g>
</g>
</svg>